<?xml version="1.0" encoding="UTF-8"?>
<svg version="1.1" xmlns="http://www.w3.org/2000/svg" width="213" height="400">
<path d="M0 0 C2.375 1 2.375 1 4 2 C4.66 1.34 5.32 0.68 6 0 C9.4375 -0.3125 9.4375 -0.3125 13 0 C13.495 0.515625 13.99 1.03125 14.5 1.5625 C14.995 2.036875 15.49 2.51125 16 3 C19.59679066 2.67673447 19.59679066 2.67673447 23 2 C24.96822886 3.96822886 24.66248381 7.34808709 25 10 C25.99 10.33 26.98 10.66 28 11 C28 11.66 28 12.32 28 13 C29.32 13.33 30.64 13.66 32 14 C31.38722388 16.96175123 30.74627478 18.38058783 29 21 C28.29835358 22.98799818 27.62627128 24.98698517 27 27 C26.34 27 25.68 27 25 27 C25.16153564 27.58031982 25.32307129 28.16063965 25.48950195 28.75854492 C26.28413301 32.24754911 26.18442325 35.75270538 26.1875 39.3125 C26.19974609 40.04662109 26.21199219 40.78074219 26.22460938 41.53710938 C26.23922687 47.02841677 25.87424167 52.28914031 22.65234375 56.94921875 C20.41942574 58.3692068 19.1585408 58.18461377 16.5625 57.8125 C15.80066406 57.71582031 15.03882812 57.61914062 14.25390625 57.51953125 C11.92421968 56.98253244 10.08519909 56.15422182 8 55 C7.67 55.99 7.34 56.98 7 58 C31.48641488 58.33599683 54.56396026 57.35715402 78.47827148 51.58789062 C80.13249466 51.20224154 81.79382175 50.84566108 83.46118164 50.52148438 C88.25160889 49.58326131 91.73009521 48.32122263 95.8125 45.5 C104.34867777 39.68603765 104.34867777 39.68603765 110 40 C109.39786904 43.14215467 108.38706131 45.10334521 106.4375 47.625 C104.43629893 50.03295004 104.43629893 50.03295004 104 53 C105.32 53.66 106.64 54.32 108 55 C108 55.99 108 56.98 108 58 C103.01974384 59.62399657 98.36070748 60.3619071 93.13671875 60.75390625 C90.95039833 60.88232638 90.95039833 60.88232638 89 62 C89 64.64 89 67.28 89 70 C57.92789143 88.09216123 57.92789143 88.09216123 41.671875 93.9921875 C39.35119421 94.86753201 37.1902588 95.84229178 35 97 C41.02275418 103.74238473 46.98034208 110.27313853 54 116 C55.23315623 117.0220349 56.4662198 118.04418161 57.69921875 119.06640625 C64.31871692 124.5239963 70.92816579 129.87998622 78.08203125 134.6328125 C80 136 80 136 81.3894043 137.49169922 C84.06678866 139.99903295 87.58493071 140.83328594 91 142 C99.07332762 144.75814751 99.07332762 144.75814751 102 148 C101.67 148.99 101.34 149.98 101 151 C96.71 151 92.42 151 88 151 C88.33 153.31 88.66 155.62 89 158 C82.86935048 157.49551006 80.30246035 153.39349209 76.40234375 149.0546875 C74.25028475 146.7615659 74.25028475 146.7615659 71.81640625 147.0078125 C69.66397016 148.00105269 69.66397016 148.00105269 68 151 C60.86913666 149.03349408 54.14687851 146.52767195 47.375 143.5625 C46.04082031 142.98918945 46.04082031 142.98918945 44.6796875 142.40429688 C39.36069956 140.10070578 34.16008001 137.6401808 29 135 C29.21205078 135.65597168 29.42410156 136.31194336 29.64257812 136.98779297 C30.59805207 139.94923722 31.54907874 142.91209091 32.5 145.875 C32.83386719 146.90753906 33.16773437 147.94007813 33.51171875 149.00390625 C33.82753906 149.99003906 34.14335938 150.97617188 34.46875 151.9921875 C34.76201172 152.90339355 35.05527344 153.81459961 35.35742188 154.75341797 C36 157 36 157 36 159 C34.35 159 32.7 159 31 159 C31.09423374 159.73141142 31.18846748 160.46282284 31.28555679 161.21639824 C33.60071563 179.18692357 35.91377622 197.15771789 38.22462845 215.12879753 C39.34228199 223.82020534 40.46059209 232.51152764 41.58056641 241.20263672 C42.55911505 248.79628302 43.53631124 256.39010206 44.51201987 263.98411381 C45.0265324 267.9882573 45.54162868 271.99232332 46.05835724 275.99618149 C48.85209772 297.64776268 51.49539505 319.31302145 54 341 C54.75740479 341.29801514 55.51480957 341.59603027 56.29516602 341.90307617 C58.93761707 342.9747011 61.49608932 344.17429753 64.06420898 345.41186523 C71.88228372 349.17061379 79.77295656 352.24920119 88 355 C88 356.65 88 358.3 88 360 C83.01953488 360.02487171 78.03910658 360.04294081 73.05859375 360.05493164 C71.36718109 360.05993487 69.67577269 360.06673952 67.984375 360.07543945 C65.54165589 360.08768185 63.09899438 360.09326855 60.65625 360.09765625 C59.91008423 360.10281754 59.16391846 360.10797882 58.3951416 360.11329651 C53.51244027 360.11380862 48.83484201 359.69035046 44 359 C44 359.33 44 359.66 44 360 C40.37 360 36.74 360 33 360 C33.18095215 358.88866699 33.3619043 357.77733398 33.54833984 356.63232422 C35.72433877 338.96455017 30.35364571 323.1465412 25.32202148 306.4520874 C24.17441837 302.62068074 23.06324997 298.77877438 21.94921875 294.9375 C20.19654196 288.90951373 18.42206335 282.88842374 16.62988281 276.87207031 C14.84536375 270.87950781 13.09042529 264.87918669 11.36230469 258.87011719 C11.04751317 257.77705041 11.04751317 257.77705041 10.72636223 256.66190147 C9.91985366 253.86031069 9.11360913 251.05866464 8.31355667 248.25522232 C7.77610056 246.37231689 7.23459915 244.49056752 6.69287109 242.60888672 C6.23658829 241.01353592 6.23658829 241.01353592 5.77108765 239.38595581 C5.22302461 237.07122641 5.22302461 237.07122641 4 236 C3.67926514 236.85078125 3.35853027 237.7015625 3.02807617 238.578125 C-1.27851688 249.69382081 -6.40500533 260.32036554 -11.6875 271 C-13.03985672 273.75002879 -14.39021037 276.50103541 -15.74050903 279.2520752 C-16.62356783 281.05080513 -17.50724656 282.84923086 -18.39157104 284.64733887 C-21.63584904 291.24547521 -24.84001071 297.86100724 -28 304.5 C-28.40798828 305.3566626 -28.81597656 306.2133252 -29.23632812 307.09594727 C-30.04925646 308.80358453 -30.86191982 310.51134797 -31.67431641 312.21923828 C-34.33370237 317.79758194 -37.01197369 323.36688484 -39.6875 328.9375 C-40.48317383 330.59458984 -40.48317383 330.59458984 -41.29492188 332.28515625 C-42.52979301 334.85684527 -43.76481567 337.42846139 -45 340 C-42.13363684 343.06280672 -38.96524897 344.65653406 -35.1875 346.375 C-34.53257568 346.67736572 -33.87765137 346.97973145 -33.20288086 347.29125977 C-26.61049621 350.27760764 -19.86106746 352.70592968 -13 355 C-13 356.65 -13 358.3 -13 360 C-17.96214369 360.04980918 -22.92413861 360.08591147 -27.88647461 360.10986328 C-29.57107075 360.11985897 -31.25564981 360.13346004 -32.94018555 360.15087891 C-35.37553141 360.17541276 -37.81064592 360.18654758 -40.24609375 360.1953125 C-40.98709824 360.20563507 -41.72810272 360.21595764 -42.49156189 360.22659302 C-47.88086107 360.22772363 -52.78900152 359.35101556 -58 358 C-58 358.66 -58 359.32 -58 360 C-61.3 360 -64.6 360 -68 360 C-67.67 353.4 -67.34 346.8 -67 340 C-66.34 340 -65.68 340 -65 340 C-64.82295532 339.3884758 -64.64591064 338.7769516 -64.46350098 338.14689636 C-62.70791893 332.17712513 -60.74621304 326.32544585 -58.59375 320.48828125 C-58.27234543 319.60907013 -57.95094086 318.72985901 -57.61979675 317.82400513 C-56.93522846 315.95181294 -56.24946773 314.0800564 -55.56259155 312.20870972 C-53.75993132 307.29536172 -51.96845788 302.37793493 -50.17578125 297.4609375 C-49.81885696 296.48255417 -49.46193268 295.50417084 -49.0941925 294.49613953 C-46.16521883 286.46383115 -43.25129936 278.42635823 -40.37890625 270.37362671 C-39.7099606 268.50039582 -39.03669529 266.62870925 -38.36328125 264.75708008 C-34.5524263 254.04284318 -31.64796638 244.06781291 -30.9375 232.6875 C-30.86225098 231.61387207 -30.78700195 230.54024414 -30.70947266 229.43408203 C-29.59809602 212.96966728 -28.81372983 196.48129962 -28 180 C-32.29 180 -36.58 180 -41 180 C-45.88057396 141.56548004 -36.03227763 100.33294666 -19.9375 65.5 C-19.65793457 64.85337402 -19.37836914 64.20674805 -19.09033203 63.54052734 C-17.81020913 60.96814428 -16.66450332 59.27534226 -13.97314453 58.16015625 C-11.75390625 57.59375 -11.75390625 57.59375 -8 57 C-7.67 54.69 -7.34 52.38 -7 50 C-7.598125 50.20625 -8.19625 50.4125 -8.8125 50.625 C-11 51 -11 51 -14 49 C-14.20302734 48.06607422 -14.20302734 48.06607422 -14.41015625 47.11328125 C-15.25136717 44.09940638 -17.00562836 43.09797836 -19.4375 41.1875 C-23.4896311 37.73259266 -25.1841006 35.40533352 -26 30 C-26.28875 29.113125 -26.5775 28.22625 -26.875 27.3125 C-27 25 -27 25 -25.1875 22.6875 C-23 21 -23 21 -21 21 C-21.5259375 19.948125 -21.5259375 19.948125 -22.0625 18.875 C-23.20482561 15.37186812 -23.14060926 13.49786841 -22 10 C-19.75 8.0625 -19.75 8.0625 -17 7 C-14.1875 7.3125 -14.1875 7.3125 -12 8 C-11.566875 7.05125 -11.13375 6.1025 -10.6875 5.125 C-7.96306303 0.07974636 -5.44966168 -0.44487034 0 0 Z " fill="#FE4133" transform="translate(87,20)"/>
<path d="M0 0 C2.97 0 5.94 0 9 0 C10.56243729 3.68300954 11.6796588 7.33112276 12.6640625 11.20703125 C13.13489258 13.03089355 13.13489258 13.03089355 13.61523438 14.89160156 C13.77983154 15.53166138 13.94442871 16.17172119 14.11401367 16.83117676 C17.62628137 30.44981437 21.70269472 43.77916477 26.39257812 57.04589844 C27 59 27 59 27 61 C25.35 61 23.7 61 22 61 C22.09423374 61.73141142 22.18846748 62.46282284 22.28555679 63.21639824 C24.60071563 81.18692357 26.91377622 99.15771789 29.22462845 117.12879753 C30.34228199 125.82020534 31.46059209 134.51152764 32.58056641 143.20263672 C33.55911505 150.79628302 34.53631124 158.39010206 35.51201987 165.98411381 C36.0265324 169.9882573 36.54162868 173.99232332 37.05835724 177.99618149 C39.85209772 199.64776268 42.49539505 221.31302145 45 243 C45.75740479 243.29801514 46.51480957 243.59603027 47.29516602 243.90307617 C49.93761707 244.9747011 52.49608932 246.17429753 55.06420898 247.41186523 C62.88228372 251.17061379 70.77295656 254.24920119 79 257 C79 258.65 79 260.3 79 262 C74.01953488 262.02487171 69.03910658 262.04294081 64.05859375 262.05493164 C62.36718109 262.05993487 60.67577269 262.06673952 58.984375 262.07543945 C56.54165589 262.08768185 54.09899438 262.09326855 51.65625 262.09765625 C50.91008423 262.10281754 50.16391846 262.10797882 49.3951416 262.11329651 C44.51244027 262.11380862 39.83484201 261.69035046 35 261 C35 261.33 35 261.66 35 262 C31.37 262 27.74 262 24 262 C24.18095215 260.88866699 24.3619043 259.77733398 24.54833984 258.63232422 C26.72433877 240.96455017 21.35364571 225.1465412 16.32202148 208.4520874 C15.17441837 204.62068074 14.06324997 200.77877438 12.94921875 196.9375 C11.19654196 190.90951373 9.42206335 184.88842374 7.62988281 178.87207031 C5.84536375 172.87950781 4.09042529 166.87918669 2.36230469 160.87011719 C2.04751317 159.77705041 2.04751317 159.77705041 1.72636223 158.66190147 C0.91985366 155.86031069 0.11360913 153.05866464 -0.68644333 150.25522232 C-1.22389944 148.37231689 -1.76540085 146.49056752 -2.30712891 144.60888672 C-2.76341171 143.01353592 -2.76341171 143.01353592 -3.22891235 141.38595581 C-3.77697539 139.07122641 -3.77697539 139.07122641 -5 138 C-5.32073486 138.85078125 -5.64146973 139.7015625 -5.97192383 140.578125 C-10.27851688 151.69382081 -15.40500533 162.32036554 -20.6875 173 C-22.03985672 175.75002879 -23.39021037 178.50103541 -24.74050903 181.2520752 C-25.62356783 183.05080513 -26.50724656 184.84923086 -27.39157104 186.64733887 C-30.63584904 193.24547521 -33.84001071 199.86100724 -37 206.5 C-37.40798828 207.3566626 -37.81597656 208.2133252 -38.23632812 209.09594727 C-39.04925646 210.80358453 -39.86191982 212.51134797 -40.67431641 214.21923828 C-43.33370237 219.79758194 -46.01197369 225.36688484 -48.6875 230.9375 C-49.21794922 232.04222656 -49.74839844 233.14695312 -50.29492188 234.28515625 C-51.52979301 236.85684527 -52.76481567 239.42846139 -54 242 C-51.13363684 245.06280672 -47.96524897 246.65653406 -44.1875 248.375 C-43.53257568 248.67736572 -42.87765137 248.97973145 -42.20288086 249.29125977 C-35.61049621 252.27760764 -28.86106746 254.70592968 -22 257 C-22 258.65 -22 260.3 -22 262 C-26.96214369 262.04980918 -31.92413861 262.08591147 -36.88647461 262.10986328 C-38.57107075 262.11985897 -40.25564981 262.13346004 -41.94018555 262.15087891 C-44.37553141 262.17541276 -46.81064592 262.18654758 -49.24609375 262.1953125 C-49.98709824 262.20563507 -50.72810272 262.21595764 -51.49156189 262.22659302 C-56.88086107 262.22772363 -61.78900152 261.35101556 -67 260 C-67 260.66 -67 261.32 -67 262 C-70.3 262 -73.6 262 -77 262 C-76.67 255.4 -76.34 248.8 -76 242 C-75.34 242 -74.68 242 -74 242 C-73.73443298 241.0827137 -73.73443298 241.0827137 -73.46350098 240.14689636 C-71.70791893 234.17712513 -69.74621304 228.32544585 -67.59375 222.48828125 C-67.27234543 221.60907013 -66.95094086 220.72985901 -66.61979675 219.82400513 C-65.93522846 217.95181294 -65.24946773 216.0800564 -64.56259155 214.20870972 C-62.75993132 209.29536172 -60.96845788 204.37793493 -59.17578125 199.4609375 C-58.81885696 198.48255417 -58.46193268 197.50417084 -58.0941925 196.49613953 C-55.16521883 188.46383115 -52.25129936 180.42635823 -49.37890625 172.37362671 C-48.7099606 170.50039582 -48.03669529 168.62870925 -47.36328125 166.75708008 C-43.5524263 156.04284318 -40.64796638 146.06781291 -39.9375 134.6875 C-39.86225098 133.61387207 -39.78700195 132.54024414 -39.70947266 131.43408203 C-38.59809602 114.96966728 -37.81372983 98.48129962 -37 82 C-36.21874756 81.98541748 -35.43749512 81.97083496 -34.63256836 81.95581055 C-31.06706632 81.88099502 -27.50246623 81.78444367 -23.9375 81.6875 C-22.70837891 81.66494141 -21.47925781 81.64238281 -20.21289062 81.61914062 C-9.46598029 81.3945151 -9.46598029 81.3945151 -0.75 75.6875 C5.356969 66.30894047 5.26837225 57.52032148 5.3125 46.625 C5.31611542 45.94269318 5.31973083 45.26038635 5.32345581 44.55740356 C5.34967269 32.18430273 3.95704073 20.37835243 1.45751953 8.24560547 C0.89978123 5.50810447 0.43615751 2.75927016 0 0 Z " fill="#89C4CB" transform="translate(96,118)"/>
<path d="M0 0 C1.65 0 3.3 0 5 0 C7.41047386 18.7093081 9.818773 37.41889497 12.22462845 56.12879753 C13.34228199 64.82020534 14.46059209 73.51152764 15.58056641 82.20263672 C16.55911505 89.79628302 17.53631124 97.39010206 18.51201987 104.98411381 C19.0265324 108.9882573 19.54162868 112.99232332 20.05835724 116.99618149 C22.85209772 138.64776268 25.49539505 160.31302145 28 182 C28.75740479 182.29801514 29.51480957 182.59603027 30.29516602 182.90307617 C32.93761707 183.9747011 35.49608932 185.17429753 38.06420898 186.41186523 C45.88228372 190.17061379 53.77295656 193.24920119 62 196 C62 197.65 62 199.3 62 201 C57.01953488 201.02487171 52.03910658 201.04294081 47.05859375 201.05493164 C45.36718109 201.05993487 43.67577269 201.06673952 41.984375 201.07543945 C39.54165589 201.08768185 37.09899438 201.09326855 34.65625 201.09765625 C33.91008423 201.10281754 33.16391846 201.10797882 32.3951416 201.11329651 C27.51244027 201.11380862 22.83484201 200.69035046 18 200 C18 200.33 18 200.66 18 201 C14.37 201 10.74 201 7 201 C7.18095215 199.88866699 7.3619043 198.77733398 7.54833984 197.63232422 C9.72433877 179.96455017 4.35364571 164.1465412 -0.67797852 147.4520874 C-1.8255819 143.62067986 -2.93667143 139.77875225 -4.05078125 135.9375 C-7.31458055 124.7200075 -10.63026048 113.51809011 -14.01363945 102.33606911 C-14.8696207 99.49925249 -15.7160902 96.65965094 -16.56077957 93.81945419 C-16.95651731 92.49782023 -17.35673682 91.17751823 -17.76188278 89.85873795 C-20.8924139 79.66637297 -22.36048724 71.92031585 -18.875 61.5625 C-18.53940063 60.5418042 -18.53940063 60.5418042 -18.19702148 59.50048828 C-17.47934058 57.3284096 -16.7425442 55.16369533 -16 53 C-15.01666599 50.12639902 -14.03654739 47.25176332 -13.0625 44.375 C-12.81306641 43.63942871 -12.56363281 42.90385742 -12.30664062 42.14599609 C-9.96678708 35.12793153 -8.0305769 28.01575624 -6.12280273 20.87011719 C-4.24919481 13.85548904 -2.21791967 6.91469072 0 0 Z " fill="#55919C" transform="translate(113,179)"/>
<path d="M0 0 C3.9475507 0.69698942 5.84443978 3.57596892 8.3125 6.50390625 C9.38385671 7.71607726 10.45806271 8.92573617 11.53515625 10.1328125 C12.04965332 10.71305176 12.56415039 11.29329102 13.09423828 11.89111328 C15.97207324 15.06482846 19.18245772 17.74386367 22.5 20.44140625 C23.73200701 21.46195454 24.96375075 22.48282068 26.1953125 23.50390625 C32.81577772 28.96325822 39.42661169 34.32035997 46.58203125 39.07421875 C48.5 40.44140625 48.5 40.44140625 49.8894043 41.93310547 C52.56678866 44.4404392 56.08493071 45.27469219 59.5 46.44140625 C67.57332762 49.19955376 67.57332762 49.19955376 70.5 52.44140625 C70.17 53.43140625 69.84 54.42140625 69.5 55.44140625 C65.21 55.44140625 60.92 55.44140625 56.5 55.44140625 C56.995 58.90640625 56.995 58.90640625 57.5 62.44140625 C51.36935048 61.93691631 48.80246035 57.83489834 44.90234375 53.49609375 C42.75028475 51.20297215 42.75028475 51.20297215 40.31640625 51.44921875 C38.16397016 52.44245894 38.16397016 52.44245894 36.5 55.44140625 C29.40139022 53.47757523 22.68797697 51.00269013 15.9375 48.06640625 C15.05642578 47.69257813 14.17535156 47.31875 13.26757812 46.93359375 C10.65839792 45.80904671 8.07764854 44.63627699 5.5 43.44140625 C4.23760498 42.88598145 4.23760498 42.88598145 2.94970703 42.31933594 C-1.19412518 40.31655353 -3.12249109 39.15054345 -5.33203125 35 C-5.7566339 33.48994697 -6.14074262 31.96832527 -6.5 30.44140625 C-6.92998291 28.8793042 -6.92998291 28.8793042 -7.36865234 27.28564453 C-8.34827864 23.70102323 -9.27321051 20.10571058 -10.1875 16.50390625 C-10.50783203 15.26060547 -10.82816406 14.01730469 -11.15820312 12.73632812 C-13.5 3.60381963 -13.5 3.60381963 -13.5 2.44140625 C-11.77192682 2.10244969 -10.04248026 1.770491 -8.3125 1.44140625 C-7.34957031 1.25578125 -6.38664062 1.07015625 -5.39453125 0.87890625 C-3.59310544 0.60662597 -1.79413594 0.31677713 0 0 Z " fill="#C11A14" transform="translate(118.5,115.55859375)"/>
<path d="M0 0 C2.375 1 2.375 1 4 2 C4.66 1.34 5.32 0.68 6 0 C9.4375 -0.3125 9.4375 -0.3125 13 0 C13.495 0.515625 13.99 1.03125 14.5 1.5625 C14.995 2.036875 15.49 2.51125 16 3 C19.59679066 2.67673447 19.59679066 2.67673447 23 2 C24.96822886 3.96822886 24.66248381 7.34808709 25 10 C25.99 10.33 26.98 10.66 28 11 C28 11.66 28 12.32 28 13 C29.32 13.33 30.64 13.66 32 14 C31.38722388 16.96175123 30.74627478 18.38058783 29 21 C28.29835358 22.98799818 27.62627128 24.98698517 27 27 C25.56163249 26.88541307 24.12429034 26.75790884 22.6875 26.625 C21.88699219 26.55539063 21.08648437 26.48578125 20.26171875 26.4140625 C18 26 18 26 15 24 C13.0103005 23.60986284 11.00980131 23.26797351 9 23 C8.9175 23.61875 8.835 24.2375 8.75 24.875 C8 27 8 27 5.9375 28.25 C5.298125 28.4975 4.65875 28.745 4 29 C4 30.32 4 31.64 4 33 C3.34 33.66 2.68 34.32 2 35 C1.01 34.34 0.02 33.68 -1 33 C-3.64632287 33.3121764 -3.64632287 33.3121764 -6 34 C-6.40749675 38.25731568 -6.40749675 38.25731568 -4.5 41.875 C-4.005 42.24625 -3.51 42.6175 -3 43 C-5.75 48.75 -5.75 48.75 -8 51 C-10.5 50.9375 -10.5 50.9375 -13 50 C-13.28875 49.23558594 -13.5775 48.47117188 -13.875 47.68359375 C-15.2238768 44.46596056 -16.77276691 43.25897135 -19.5 41.125 C-23.52840947 37.69697848 -25.18953133 35.36935494 -26 30 C-26.28875 29.113125 -26.5775 28.22625 -26.875 27.3125 C-27 25 -27 25 -25.1875 22.6875 C-23 21 -23 21 -21 21 C-21.350625 20.29875 -21.70125 19.5975 -22.0625 18.875 C-23.20482561 15.37186812 -23.14060926 13.49786841 -22 10 C-19.75 8.0625 -19.75 8.0625 -17 7 C-14.1875 7.3125 -14.1875 7.3125 -12 8 C-11.566875 7.05125 -11.13375 6.1025 -10.6875 5.125 C-7.96306303 0.07974636 -5.44966168 -0.44487034 0 0 Z " fill="#2C1B18" transform="translate(87,20)"/>
<path d="M0 0 C5.625 -0.25 5.625 -0.25 9 2 C11.32108669 2.70812814 13.65377147 3.38024152 16 4 C17.1419701 8.10254896 17.1838417 12.07984225 17.1875 16.3125 C17.19974609 17.04662109 17.21199219 17.78074219 17.22460938 18.53710938 C17.23922687 24.02841677 16.87424167 29.28914031 13.65234375 33.94921875 C11.41942574 35.3692068 10.1585408 35.18461377 7.5625 34.8125 C6.80066406 34.71582031 6.03882812 34.61914062 5.25390625 34.51953125 C2.92421968 33.98253244 1.08519909 33.15422182 -1 32 C-1.33 33.32 -1.66 34.64 -2 36 C-6.62 36 -11.24 36 -16 36 C-17.42593958 33.14812085 -16.50744998 31.64476004 -15.625 28.625 C-15.21121094 27.19027344 -15.21121094 27.19027344 -14.7890625 25.7265625 C-14.52867188 24.82679687 -14.26828125 23.92703125 -14 23 C-13.65938578 21.66850804 -13.32289515 20.33589955 -13 19 C-13.99 18.34 -14.98 17.68 -16 17 C-16.375 14 -16.375 14 -16 11 C-13 9 -13 9 -10.4375 9.375 C-9.633125 9.58125 -8.82875 9.7875 -8 10 C-7.34 10 -6.68 10 -6 10 C-5.67 9.01 -5.34 8.02 -5 7 C-6.65 6.67 -8.3 6.34 -10 6 C-10 5.67 -10 5.34 -10 5 C-8.081875 4.87625 -8.081875 4.87625 -6.125 4.75 C-3.94666582 4.54130069 -3.94666582 4.54130069 -2 4 C-0.4100567 2.07935207 -0.4100567 2.07935207 0 0 Z " fill="#90593B" transform="translate(96,43)"/>
<path d="M0 0 C2.97 0 5.94 0 9 0 C10.56243729 3.68300954 11.6796588 7.33112276 12.6640625 11.20703125 C12.97794922 12.42293945 13.29183594 13.63884766 13.61523438 14.89160156 C13.77983154 15.53166138 13.94442871 16.17172119 14.11401367 16.83117676 C17.62628137 30.44981437 21.70269472 43.77916477 26.39257812 57.04589844 C27 59 27 59 27 61 C20.07 60.67 13.14 60.34 6 60 C5.97421875 58.1128125 5.9484375 56.225625 5.921875 54.28125 C5.61084103 38.63951517 4.47341114 23.66048376 1.44140625 8.26171875 C0.90562935 5.51645483 0.4418892 2.76180749 0 0 Z " fill="#F1EAEA" transform="translate(96,118)"/>
<path d="M0 0 C14.48476129 0 23.65723466 0.75878691 36.02636719 7.94677734 C39.54137038 9.82254723 43.25818762 11.15047348 47 12.5 C47.7017334 12.75483154 48.4034668 13.00966309 49.12646484 13.2722168 C50.74827769 13.85570129 52.37372395 14.4290733 54 15 C54 16.65 54 18.3 54 20 C49.03785631 20.04980918 44.07586139 20.08591147 39.11352539 20.10986328 C37.42892925 20.11985897 35.74435019 20.13346004 34.05981445 20.15087891 C31.62446859 20.17541276 29.18935408 20.18654758 26.75390625 20.1953125 C26.01290176 20.20563507 25.27189728 20.21595764 24.50843811 20.22659302 C19.11913893 20.22772363 14.21099848 19.35101556 9 18 C9 18.66 9 19.32 9 20 C5.7 20 2.4 20 -1 20 C-0.67 13.4 -0.34 6.8 0 0 Z " fill="#181747" transform="translate(20,360)"/>
<path d="M0 0 C12.64303198 -0.69754659 20.42271551 -0.86249418 31.1015625 5.75390625 C35.61970329 8.5141967 40.46401311 10.2347975 45.4375 12 C46.28578369 12.30236572 47.13406738 12.60473145 48.00805664 12.91625977 C50.00221491 13.61985006 52.00064694 14.31131003 54 15 C54 16.65 54 18.3 54 20 C49.01953488 20.02487171 44.03910658 20.04294081 39.05859375 20.05493164 C37.36718109 20.05993487 35.67577269 20.06673952 33.984375 20.07543945 C31.54165589 20.08768185 29.09899438 20.09326855 26.65625 20.09765625 C25.91008423 20.10281754 25.16391846 20.10797882 24.3951416 20.11329651 C19.51244027 20.11380862 14.83484201 19.69035046 10 19 C10 19.33 10 19.66 10 20 C6.37 20 2.74 20 -1 20 C-0.67 13.4 -0.34 6.8 0 0 Z " fill="#181746" transform="translate(121,360)"/>
<path d="M0 0 C-0.60213096 3.14215467 -1.61293869 5.10334521 -3.5625 7.625 C-5.56370107 10.03295004 -5.56370107 10.03295004 -6 13 C-4.68 13.66 -3.36 14.32 -2 15 C-2 15.99 -2 16.98 -2 18 C-6.91430167 19.60248967 -11.51458176 20.35624332 -16.66796875 20.75390625 C-18.86362389 20.98560855 -20.87606637 21.40920467 -23 22 C-25 14.375 -25 14.375 -25 11 C-23.88625 10.46375 -22.7725 9.9275 -21.625 9.375 C-17.31152835 7.2259668 -13.21128412 4.78244153 -9.1015625 2.26953125 C-5.77258092 0.25852936 -3.89015281 -0.10237244 0 0 Z " fill="#925A3C" transform="translate(197,60)"/>
<path d="M0 0 C20.01594261 6.33838183 20.01594261 6.33838183 24 11 C23.67 11.99 23.34 12.98 23 14 C18.71 14 14.42 14 10 14 C10.33 16.31 10.66 18.62 11 21 C6.10262532 20.57796412 4.10977121 18.51176843 0.8125 15 C-2.25987953 11.55497294 -2.25987953 11.55497294 -6 9 C-4.47291037 5.56404834 -2.40072955 2.88087546 0 0 Z " fill="#905A3B" transform="translate(165,157)"/>
</svg>
